<svg width="32" height="32" viewBox="0 0 32 32" fill="none" xmlns="http://www.w3.org/2000/svg">
<path d="M19.9132 3.6665C20.3222 3.71475 20.7135 3.86121 21.0536 4.09338C21.3937 4.32555 21.6726 4.63654 21.8666 4.99984C22.8466 6.51984 21.8066 6.03984 23.1532 5.4065C24.4999 4.77317 25.8199 6.65317 25.8199 6.65317C26.1798 7.18062 26.4251 7.77769 26.5399 8.40581C26.6548 9.03394 26.6366 9.67917 26.4866 10.2998C25.6199 14.2998 18.1866 15.2665 18.1866 15.2665C16.5866 13.2198 16.1532 6.77317 17.7799 4.8665C18.0141 4.54091 18.3122 4.26654 18.6561 4.0602C19 3.85386 19.3824 3.71989 19.7799 3.6665H19.9132ZM9.13991 5.41317C9.5298 5.41065 9.9188 5.45089 10.2999 5.53317C14.2999 6.39984 15.2666 13.8332 15.2666 13.8332C13.2266 15.4332 6.77325 15.8332 4.86658 14.2398C2.95991 12.6465 3.47991 11.1132 4.99991 10.1332C6.51991 9.15317 6.03991 10.1932 5.40658 8.8465C4.77325 7.49984 6.65325 6.17984 6.65325 6.17984C7.3836 5.67317 8.25102 5.40108 9.13991 5.39984V5.41317ZM13.8066 16.7465C15.4066 18.7865 15.8399 25.2398 14.2132 27.1465C12.5866 29.0532 11.0932 28.5332 10.1066 27.0132C9.11991 25.4932 10.1666 25.9732 8.81991 26.6065C7.47325 27.2398 6.15325 25.3598 6.15325 25.3598C5.79335 24.8324 5.54807 24.2353 5.43324 23.6072C5.31841 22.9791 5.33658 22.3338 5.48658 21.7132C6.35325 17.7132 13.7866 16.7465 13.7866 16.7465H13.8066ZM22.7466 16.7465C24.5732 16.7465 26.2732 17.0665 27.1066 17.7732C28.9399 19.3332 28.4932 20.8932 26.9732 21.8798C25.4532 22.8665 25.9332 21.8198 26.5666 23.1665C27.1999 24.5132 25.3199 25.8332 25.3199 25.8332C24.7925 26.1931 24.1954 26.4383 23.5673 26.5532C22.9391 26.668 22.2939 26.6498 21.6732 26.4998C17.6732 25.6332 16.7066 18.1998 16.7066 18.1998C17.8599 17.2998 20.3999 16.7732 22.7466 16.7665V16.7465Z" stroke="#5E9ABF" stroke-width="0.5" stroke-linecap="round" stroke-linejoin="round"/>
</svg>
